<?xml version="1.0" standalone="no"?>
<!DOCTYPE svg PUBLIC "-//W3C//DTD SVG 20010904//EN"
 "http://www.w3.org/TR/2001/REC-SVG-20010904/DTD/svg10.dtd">
<svg version="1.0" xmlns="http://www.w3.org/2000/svg"
 width="1280.000000pt" height="1109.000000pt" viewBox="0 0 1280.000000 1109.000000"
 preserveAspectRatio="xMidYMid meet">
<metadata>
Created by potrace 1.15, written by Peter Selinger 2001-2017
</metadata>
<g transform="translate(0.000000,1109.000000) scale(0.100000,-0.100000)"
fill="#000000" stroke="none">
<path d="M5936 11013 l-7 -78 -127 -70 c-194 -107 -255 -125 -447 -135 -287
-16 -475 -76 -604 -195 -60 -56 -86 -98 -98 -157 l-6 -33 34 26 c108 83 168
87 397 29 252 -64 365 -72 532 -34 82 18 150 44 240 89 38 19 72 35 75 35 7 0
6 -112 -2 -303 l-6 -158 -36 5 c-20 3 -110 8 -200 12 l-163 6 42 -62 c65 -95
156 -294 187 -405 23 -84 27 -120 28 -225 0 -139 -10 -189 -61 -290 -31 -63
-95 -146 -143 -184 -31 -25 -18 -32 84 -41 l80 -7 83 -75 c82 -75 82 -75 82
-125 l0 -49 -72 7 c-128 14 -980 10 -1123 -5 -160 -16 -247 -33 -281 -56 l-26
-17 28 -18 c15 -11 52 -43 81 -71 131 -128 174 -339 113 -550 l-10 -35 -622
-201 c-343 -111 -633 -204 -645 -208 l-23 -6 0 275 0 276 -90 0 -89 0 -3 -147
-3 -146 -60 -37 c-103 -62 -163 -83 -250 -87 -64 -4 -92 0 -140 17 -93 33
-184 37 -284 11 -208 -52 -394 -195 -436 -335 -8 -27 -13 -51 -11 -53 2 -3 25
11 50 30 94 73 153 75 395 17 97 -24 183 -45 191 -48 8 -2 -95 -40 -230 -84
-135 -43 -251 -81 -259 -84 -9 -3 -11 -8 -5 -14 6 -6 114 24 289 81 198 64
299 91 345 94 154 11 230 27 348 74 29 11 55 21 57 21 3 0 5 -47 5 -105 0
-100 -1 -105 -22 -110 -13 -3 -154 -32 -315 -65 l-291 -59 -114 9 c-180 16
-326 38 -382 60 -16 6 -30 9 -31 8 -2 -2 24 -36 56 -77 33 -41 56 -77 52 -81
-7 -6 -256 -60 -275 -60 -5 0 -8 91 -8 203 0 111 -3 239 -7 285 l-6 82 -83 0
-84 0 0 -119 0 -119 -46 -41 c-113 -99 -246 -125 -349 -68 -128 71 -158 82
-225 81 -99 0 -182 -43 -281 -143 -82 -83 -153 -206 -166 -286 l-6 -39 50 37
c61 45 129 76 164 77 21 0 385 -88 369 -90 -3 0 -224 -44 -490 -99 -432 -87
-493 -98 -563 -93 l-77 4 73 -108 c226 -335 327 -641 314 -948 -11 -252 -87
-447 -252 -646 l-64 -78 72 -21 c287 -84 785 -161 1310 -202 l157 -13 0 -117
0 -117 -87 -7 c-380 -27 -590 -73 -623 -135 -8 -15 -7 -27 4 -48 12 -22 12
-38 4 -73 -14 -61 -3 -498 16 -669 34 -284 96 -621 171 -915 222 -869 538
-1503 847 -1698 75 -47 123 -64 219 -77 46 -6 570 -80 1164 -165 1905 -273
2636 -360 3570 -426 238 -17 834 -18 955 -1 465 65 1093 330 1654 699 727 478
1322 1098 1707 1778 l69 123 48 6 c26 3 157 13 292 21 135 9 255 18 266 20 29
6 139 114 194 190 48 65 120 197 120 220 0 21 -139 88 -292 140 -154 53 -299
93 -523 146 -111 25 -154 39 -140 44 103 38 245 104 314 145 400 238 597 555
553 890 -19 137 -82 303 -168 438 -19 29 -34 56 -34 61 0 4 198 187 440 405
l441 397 -57 62 c-31 34 -61 63 -65 65 -5 2 -44 -28 -86 -67 l-78 -71 -100 0
c-212 0 -313 47 -462 213 -75 82 -159 110 -269 87 -149 -31 -334 -173 -404
-311 l-19 -37 72 29 c75 30 137 36 183 19 15 -6 84 -46 153 -89 135 -84 307
-173 409 -212 34 -13 62 -27 62 -31 0 -3 -75 -73 -166 -156 l-167 -149 -181
183 c-158 159 -2614 2559 -2849 2784 l-89 85 7 80 c18 221 -58 516 -158 613
-28 28 -49 36 -128 52 -52 11 -154 25 -226 32 l-133 11 0 359 0 360 -67 -7
c-115 -10 -113 -9 -113 -59 0 -40 -4 -48 -47 -85 -99 -87 -257 -141 -359 -122
-38 7 -67 31 -284 242 -134 130 -247 248 -255 265 -11 27 -21 34 -67 44 -124
27 -423 63 -713 88 l-90 7 4 533 3 532 -59 0 -60 0 -7 -77z m1393 -1569 l35
-33 -65 27 c-55 23 -78 27 -165 27 l-102 0 -12 89 c-11 81 -34 179 -55 231 -5
11 68 -54 161 -144 93 -90 185 -179 203 -197z m536 -482 c-3 -3 -22 10 -42 30
l-36 36 39 45 39 45 3 -75 c2 -42 0 -78 -3 -81z m-760 27 c64 -28 157 -61 206
-73 l90 -22 51 -74 c90 -133 188 -356 176 -403 -2 -9 -123 81 -323 240 -176
140 -328 261 -339 268 -19 14 -19 12 9 103 3 6 6 12 9 12 2 0 57 -23 121 -51z
m710 -19 l39 -40 -64 0 c-36 0 -90 -3 -120 -6 l-55 -6 62 37 c34 19 65 40 68
45 11 18 31 10 70 -30z m-524 -333 l344 -272 3 -59 c6 -114 -54 -242 -148
-317 -30 -24 -63 -34 -205 -63 -94 -19 -182 -37 -197 -41 -26 -7 -29 -2 -97
132 -80 159 -156 282 -244 401 -69 91 -83 98 -232 121 -93 15 -367 41 -421 41
-23 0 -45 4 -49 9 -3 6 -2 59 1 119 l7 109 286 6 c244 5 475 22 558 42 12 3
25 14 28 25 3 11 10 20 15 20 4 0 162 -123 351 -273z m-1384 177 c3 -8 2 -33
-3 -55 l-9 -40 -55 55 -54 56 57 0 c43 0 59 -4 64 -16z m4178 -2064 c605 -590
1111 -1084 1125 -1098 33 -32 11 -20 -75 43 -38 29 -96 69 -129 91 -54 36 -59
37 -71 21 -12 -16 -79 34 -708 533 l-695 551 -12 97 c-22 178 -83 319 -178
417 -37 39 -51 45 -129 64 -116 27 -252 49 -394 66 l-117 14 -255 203 c-162
128 -251 205 -244 210 7 4 60 8 120 8 82 0 121 -5 164 -20 32 -11 66 -20 76
-20 35 0 85 63 103 129 l18 62 150 -149 c83 -82 646 -632 1251 -1222z m-1906
1183 c20 -15 136 -107 257 -203 l222 -176 -192 0 c-105 1 -244 -3 -309 -7
l-117 -8 2 203 3 203 40 6 c22 3 44 7 49 8 5 0 25 -11 45 -26z m-784 -33 c-15
-17 -16 -22 -4 -36 18 -21 115 -15 314 21 77 14 143 25 148 25 4 0 7 -90 7
-199 l0 -199 -32 -7 c-102 -21 -287 -68 -314 -80 -18 -8 -46 -28 -64 -45 -18
-16 -37 -30 -42 -30 -11 0 -45 28 -151 126 -68 63 -69 64 -122 206 -29 79 -56
150 -59 159 -6 13 19 21 161 51 92 19 170 33 172 32 2 -2 -4 -13 -14 -24z
m-2812 -127 c-36 -87 -96 -197 -162 -295 -119 -177 -52 -149 -613 -263 -269
-54 -489 -96 -490 -94 -2 2 -1 67 2 143 l5 140 625 202 c344 111 630 203 637
203 9 1 8 -10 -4 -36z m2740 -390 c32 -31 57 -56 55 -57 -2 -1 -27 -19 -56
-39 -57 -41 -72 -40 -72 1 0 15 -11 66 -23 114 l-24 87 31 -26 c17 -14 57 -50
89 -80z m270 -22 c75 -48 134 -177 125 -273 l-3 -32 -143 131 c-79 72 -143
135 -143 138 0 13 77 64 97 65 11 0 41 -13 67 -29z m-29 -199 c129 -119 156
-148 156 -171 0 -91 -84 -428 -114 -459 -8 -8 -262 -143 -565 -302 -506 -264
-552 -286 -556 -266 -11 45 -65 351 -65 367 0 24 212 74 239 57 16 -10 31 -4
92 32 208 123 346 263 429 435 55 114 69 166 77 280 l6 81 66 47 c36 26 69 46
73 45 3 -2 76 -67 162 -146z m-3330 62 c-40 -45 -77 -71 -194 -136 -80 -44
-154 -81 -165 -83 -11 -1 -36 -7 -55 -13 -73 -23 -478 -60 -501 -46 -5 3 -9
36 -9 74 l0 69 58 12 c298 63 908 185 911 183 2 -2 -18 -29 -45 -60z m-132
-163 c-75 -90 -176 -201 -184 -201 -8 0 -31 96 -26 110 2 8 243 149 256 150 2
0 -18 -27 -46 -59z m-962 -66 l0 -55 -245 0 c-135 0 -245 3 -245 8 0 7 424 99
468 101 20 1 22 -3 22 -54z m7098 -694 c417 -330 670 -537 666 -544 -35 -61
-233 -351 -316 -462 -119 -158 -315 -395 -327 -395 -6 0 -705 665 -910 865
l-35 34 52 163 c104 327 162 625 162 834 0 63 1 66 18 52 9 -8 320 -254 690
-547z m-8064 467 c98 -151 206 -397 206 -468 0 -20 -4 -22 -32 -17 -18 3 -144
16 -280 28 l-248 23 -2 163 c-1 90 -2 191 -3 225 l0 62 150 32 c83 18 151 33
153 33 1 1 27 -36 56 -81z m3269 -28 c3 -3 -20 -142 -52 -310 l-56 -305 -110
-27 c-61 -15 -146 -35 -190 -44 l-80 -17 -457 304 c-252 166 -456 305 -453
307 16 17 488 79 720 96 76 5 673 2 678 -4z m57 -17 c0 -10 -21 -145 -47 -301
-41 -240 -51 -283 -66 -288 -10 -3 -20 -4 -23 -2 -2 3 21 136 51 296 30 160
55 296 55 302 0 5 7 10 15 10 8 0 15 -8 15 -17z m60 2 c0 -14 -81 -552 -85
-562 -2 -7 -14 -13 -25 -13 -16 0 -19 5 -15 23 3 12 21 119 40 237 49 297 54
320 71 320 8 0 14 -2 14 -5z m87 -9 c1 -1 -12 -121 -30 -266 l-32 -265 -39
-13 c-21 -7 -40 -11 -41 -10 -4 4 74 539 80 557 4 9 14 11 33 6 15 -4 28 -8
29 -9z m-4017 -175 c0 -99 -3 -182 -7 -184 -5 -3 -201 12 -438 33 -236 21
-538 46 -669 56 -137 10 -231 21 -220 25 10 5 219 49 464 99 292 59 467 90
510 90 74 0 223 23 290 44 25 8 51 14 58 15 9 1 12 -41 12 -178z m4060 157 c0
-41 -31 -462 -36 -485 -3 -15 -12 -23 -25 -23 -19 0 -21 4 -16 38 3 20 18 139
33 265 15 125 31 227 36 227 4 0 8 -10 8 -22z m30 -242 c-11 -198 -16 -246
-28 -251 -13 -5 -14 6 -9 67 4 40 12 150 18 243 11 174 15 202 26 192 3 -4 0
-117 -7 -251z m151 227 c4 -5 5 -102 2 -216 -7 -235 0 -217 -95 -243 l-48 -12
0 26 c1 20 27 435 30 461 0 7 103 -8 111 -16z m223 -75 c16 -136 16 -177 -3
-187 -17 -9 -19 -3 -24 72 -10 128 -9 157 7 157 10 0 17 -15 20 -42z m-1633
-270 c252 -167 458 -305 459 -308 0 -3 -42 -15 -92 -25 l-93 -20 -310 43
c-170 24 -311 45 -313 47 -4 4 -141 544 -142 558 -1 25 80 -24 491 -295z
m1694 244 c3 -26 7 -61 9 -78 3 -21 -1 -34 -14 -41 -16 -10 -18 -6 -24 49 -10
99 -8 128 9 122 8 -3 16 -25 20 -52z m69 28 c39 -14 37 -71 -3 -99 l-29 -21
-6 31 c-9 46 -7 99 3 99 5 0 21 -4 35 -10z m-185 -224 c-5 -6 -8 32 -8 105 l2
114 8 -105 c5 -64 4 -109 -2 -114z m259 190 c3 -12 -1 -17 -10 -14 -7 3 -15
13 -16 22 -3 12 1 17 10 14 7 -3 15 -13 16 -22z m71 -110 c11 -57 14 -99 9
-102 -5 -3 -11 -4 -12 -3 -8 9 -35 193 -30 201 10 16 14 4 33 -96z m126 49
c50 -25 102 -56 114 -69 l23 -24 -94 -21 c-51 -12 -100 -24 -110 -27 -13 -4
-18 6 -26 43 -21 100 -25 143 -12 143 7 0 54 -20 105 -45z m-162 -117 c6 -43
5 -48 -13 -48 -11 0 -20 6 -20 13 0 6 -5 45 -10 86 -8 58 -7 77 3 83 13 8 27
-40 40 -134z m-60 -5 c6 -52 6 -53 -26 -61 -18 -5 -35 -6 -38 -3 -4 3 -9 34
-13 68 -5 61 -5 62 27 87 l32 26 6 -33 c4 -17 9 -56 12 -84z m1291 10 c-54
-137 -141 -306 -218 -422 -74 -110 -203 -250 -271 -294 l-40 -26 -255 37 -255
37 -16 90 c-9 50 -16 91 -15 91 4 5 1092 573 1098 574 3 0 -9 -39 -28 -87z
m-1389 -18 c7 -57 2 -75 -19 -75 -18 0 -30 99 -15 117 20 23 27 14 34 -42z
m-64 -34 c3 -31 -1 -46 -10 -49 -31 -10 -44 70 -14 87 10 5 19 9 20 8 0 -1 3
-22 4 -46z m-70 -64 c-8 -8 -11 -1 -11 24 0 46 14 60 18 19 2 -18 -1 -37 -7
-43z m354 31 c13 -55 65 -354 65 -375 0 -13 -6 -23 -13 -23 -8 0 -21 55 -40
173 -15 94 -30 189 -34 210 -6 41 13 54 22 15z m-18 -184 c17 -104 32 -199 32
-211 1 -25 -37 -52 -48 -35 -11 18 -54 419 -46 432 18 30 32 -11 62 -186z
m-93 154 c8 -36 46 -371 46 -400 0 -19 -9 -32 -36 -47 -20 -12 -38 -20 -40
-19 -1 2 -13 108 -25 237 -24 251 -24 250 28 251 15 0 24 -7 27 -22z m-103 0
c0 -2 11 -109 24 -238 l24 -235 -21 -18 c-12 -10 -23 -15 -26 -12 -7 7 -41
488 -35 498 4 6 32 10 34 5z m-61 -30 c0 -13 7 -108 15 -213 20 -261 20 -255
-10 -255 -23 0 -25 4 -25 41 0 23 -5 129 -11 236 -9 163 -9 197 2 204 22 14
29 11 29 -13z m-58 -129 c3 -68 9 -170 12 -226 l6 -103 -25 0 -25 0 0 231 c0
180 3 230 13 227 8 -3 14 -43 19 -129z m-192 -105 l0 -196 -67 7 c-103 11 -96
-1 -88 154 4 75 9 139 11 143 6 10 125 88 135 88 5 0 9 -88 9 -196z m-114 161
c-11 -8 -22 -12 -25 -9 -6 6 19 24 34 24 6 -1 1 -7 -9 -15z m-56 -24 c0 -20
-17 -37 -27 -28 -7 8 7 47 18 47 5 0 9 -9 9 -19z m-50 -18 c0 -26 -25 -63 -42
-63 -16 0 -8 69 10 79 26 16 32 13 32 -16z m-70 -5 c-1 -59 -14 -88 -57 -118
l-45 -33 7 59 c9 83 13 92 38 97 43 8 57 7 57 -5z m-110 -25 c0 -51 -24 -143
-41 -159 -10 -9 -22 -15 -25 -11 -12 11 17 162 34 175 22 17 32 15 32 -5z
m-76 -40 c-25 -155 -29 -168 -52 -171 -27 -4 -27 -1 -5 108 16 83 24 100 51
100 9 0 11 -11 6 -37z m302 -9 c-3 -26 -6 -79 -6 -118 0 -73 -11 -109 -29 -91
-5 6 -5 52 0 120 10 122 13 135 30 135 8 0 10 -14 5 -46z m-383 -56 c-9 -46
-19 -87 -23 -92 -5 -5 -43 -3 -90 3 -66 10 -92 20 -146 54 -37 23 -60 44 -52
46 30 11 285 69 304 70 21 1 21 1 7 -81z m322 -65 c-6 -68 -10 -83 -23 -83
-38 0 -41 12 -31 95 8 62 16 84 32 99 22 18 22 18 25 -5 2 -13 1 -61 -3 -106z
m-991 26 c4 -4 -418 -105 -469 -113 -8 -1 -52 139 -54 175 -1 13 33 10 259
-21 143 -20 262 -38 264 -41z m358 10 c26 -17 48 -33 48 -36 0 -2 -12 -2 -27
1 -16 2 -68 10 -116 17 -48 6 -86 13 -83 16 4 4 98 29 120 32 5 1 31 -13 58
-30z m554 -36 c-4 -37 -8 -68 -9 -70 -1 -1 -22 1 -45 4 l-42 6 6 36 c4 20 14
41 23 48 9 6 25 18 36 27 34 26 38 19 31 -51z m-635 -9 c180 -25 185 -26 247
-66 34 -22 62 -44 62 -48 0 -6 -256 -191 -351 -253 -27 -18 -34 -17 -561 83
-293 55 -537 103 -543 105 -5 3 86 2 204 -1 l213 -6 -6 21 c-3 11 -9 30 -12
41 -3 11 -4 20 -2 20 2 0 127 29 278 64 151 36 278 65 281 65 3 1 88 -11 190
-25z m519 -24 c0 -15 -7 -20 -27 -20 l-28 0 25 20 c31 24 30 24 30 0z m-200
-20 c14 0 32 -5 40 -10 13 -8 13 -11 -2 -26 -16 -16 -20 -15 -65 15 -34 23
-41 31 -23 27 14 -3 36 -6 50 -6z m1234 -12 c29 -136 29 -145 3 -135 -14 5
-40 133 -30 150 8 14 23 7 27 -15z m-40 -85 c6 -43 6 -43 -24 -43 -32 0 -35 3
-45 62 -5 33 -3 38 22 52 32 16 33 14 47 -71z m-1078 55 c-3 -13 -6 -31 -6
-40 0 -22 -23 -23 -40 -3 -11 13 -9 20 10 40 29 31 44 32 36 3z m69 12 c8 -13
-5 -120 -14 -120 -4 0 -15 6 -25 13 -26 19 -14 117 14 117 11 0 22 -5 25 -10z
m99 -10 c17 0 18 -6 11 -82 -4 -46 -11 -87 -15 -91 -4 -5 -24 2 -44 15 -37 23
-37 23 -31 78 9 83 14 93 38 86 12 -3 30 -6 41 -6z m99 -17 c5 -9 -11 -214
-17 -221 -2 -2 -16 4 -31 14 -27 18 -27 19 -21 93 10 109 14 121 41 121 13 0
26 -3 28 -7z m52 -130 c-4 -71 -9 -130 -11 -132 -2 -2 -10 2 -19 9 -10 8 -14
23 -11 44 3 17 8 70 12 119 4 68 9 87 21 87 13 0 14 -17 8 -127z m665 115 c0
-7 3 -24 7 -37 6 -23 5 -24 -38 -17 -62 10 -68 21 -23 45 46 24 54 25 54 9z
m-497 -14 c15 -5 17 -18 17 -100 l0 -94 -71 -36 c-39 -19 -78 -33 -86 -30 -12
5 -13 25 -8 118 9 170 5 161 73 154 31 -4 65 -9 75 -12z m-573 -15 c0 -23 -53
-294 -59 -301 -5 -5 -309 47 -317 55 -5 4 357 257 368 257 4 0 8 -5 8 -11z
m53 -23 c16 -13 16 -19 -3 -132 -29 -170 -27 -164 -55 -164 -14 0 -25 5 -25
12 0 26 54 298 59 298 3 0 14 -7 24 -14z m741 8 c9 -3 16 -14 16 -25 0 -20
-38 -51 -52 -43 -7 4 -6 52 1 72 2 4 19 2 35 -4z m-2914 -184 l0 -180 -40 0
-39 0 -3 173 c-2 94 -2 175 0 180 2 4 21 7 43 7 l39 0 0 -180z m564 -32 c141
-116 255 -212 253 -213 -1 -1 -72 6 -157 16 -85 9 -233 23 -327 30 l-173 13 0
183 0 183 74 0 74 0 256 -212z m456 97 c338 -64 623 -119 633 -123 14 -6 -23
-36 -165 -136 l-183 -128 -155 26 c-85 14 -181 29 -213 32 -39 5 -69 15 -93
33 -76 57 -483 396 -483 404 -1 4 9 7 22 7 12 0 299 -52 637 -115z m1960 105
c0 -5 -4 -10 -10 -10 -5 0 -10 5 -10 10 0 6 5 10 10 10 6 0 10 -4 10 -10z
m3649 -438 c379 -364 459 -446 452 -460 -18 -34 -348 -349 -456 -435 -125
-100 -332 -243 -340 -235 -3 3 0 36 6 74 18 102 15 370 -5 489 -29 175 -90
381 -159 538 -14 31 -30 57 -34 57 -4 0 -62 9 -128 19 -66 11 -337 50 -602 87
l-483 67 0 34 0 33 313 0 c171 0 443 3 604 7 l291 6 33 84 c18 46 35 82 40 81
4 -2 214 -202 468 -446z m-3544 404 c2 -11 11 -104 20 -206 8 -102 18 -198 20
-214 5 -27 4 -28 -27 -22 -17 3 -32 7 -34 9 -5 6 -34 450 -29 457 9 15 45 -2
50 -24z m111 2 c7 -12 64 -461 59 -467 -9 -8 -105 12 -105 22 0 7 -9 107 -20
222 -11 116 -20 217 -20 225 0 12 9 15 40 12 22 -2 43 -9 46 -14z m-936 -32
c-1 -6 -9 -63 -19 -126 -17 -111 -18 -115 -41 -112 -13 1 -26 5 -28 7 -5 4 3
56 29 212 l11 62 24 -16 c13 -8 24 -20 24 -27z m759 -138 c6 -101 14 -200 17
-220 5 -35 4 -38 -20 -38 -13 0 -27 4 -31 9 -3 6 -11 98 -17 206 -11 188 -10
196 8 210 10 8 22 15 25 15 3 0 11 -82 18 -182z m276 159 c3 -4 75 -452 75
-467 0 -16 -67 -67 -75 -58 -5 5 -65 484 -65 520 0 18 4 20 32 14 17 -3 32 -7
33 -9z m51 -5 c6 -4 28 -101 48 -216 33 -188 36 -211 22 -225 -9 -8 -17 -13
-19 -10 -2 2 -18 94 -36 204 -18 110 -35 212 -38 228 -5 27 2 33 23 19z m287
-39 c114 -15 207 -30 207 -34 0 -7 -91 -48 -112 -51 -7 0 7 -4 31 -7 l44 -6
-153 -120 c-181 -142 -190 -148 -195 -143 -2 2 -18 80 -35 173 -16 94 -33 183
-36 199 -6 26 -4 28 17 23 13 -3 117 -18 232 -34z m-688 -176 l7 -188 -28 6
c-16 4 -35 8 -41 11 -10 2 -13 46 -13 173 l0 170 28 15 c15 8 30 11 34 8 3 -4
9 -92 13 -195z m-614 166 c36 -24 40 -30 35 -57 -3 -17 -8 -64 -12 -104 l-7
-74 -46 7 c-25 4 -48 9 -50 11 -4 4 31 244 36 244 2 0 22 -12 44 -27z m112
-75 c15 -11 17 -22 12 -65 -6 -45 -11 -52 -41 -67 -46 -22 -47 -21 -40 22 3
20 8 61 12 89 6 56 9 57 57 21z m2015 -30 l232 -32 0 -76 0 -75 -194 -17
c-232 -21 -604 -68 -849 -106 -97 -16 -179 -26 -182 -24 -3 3 -5 15 -5 27 0
17 47 59 194 173 l193 152 179 3 c99 1 184 4 189 5 6 1 115 -12 243 -30z m232
12 c0 -11 -3 -20 -7 -20 -32 2 -206 30 -211 34 -3 3 45 6 106 6 105 0 112 -1
112 -20z m-1980 -60 l0 -69 -60 37 c-32 20 -59 39 -60 42 0 6 99 58 113 59 4
1 7 -30 7 -69z m-200 20 c0 -10 -7 -23 -15 -30 -13 -11 -15 -7 -15 23 0 28 3
35 15 31 8 -4 15 -14 15 -24z m-621 -41 c91 -17 167 -32 169 -33 4 -5 -38
-200 -46 -207 -4 -3 -73 -40 -153 -82 l-145 -76 -30 20 c-107 73 -197 119
-256 130 -35 6 -68 15 -74 18 -11 6 341 261 360 261 5 0 84 -14 175 -31z m821
-104 c0 -29 5 -29 -93 -10 -43 8 -81 15 -84 15 -11 0 5 103 17 110 9 5 39 -9
87 -41 58 -39 73 -55 73 -74z m2547 60 l298 -43 -210 -1 c-115 -1 -267 -4
-337 -8 l-128 -6 0 57 0 56 39 -6 c22 -3 174 -25 338 -49z m-2747 -5 c0 -33
-3 -40 -20 -40 -37 0 -21 75 18 80 1 0 2 -18 2 -40z m-388 5 c12 -5 13 -17 4
-72 -10 -57 -15 -69 -41 -84 -16 -10 -31 -17 -33 -15 -2 2 4 43 14 90 16 85
23 94 56 81z m328 -15 c0 -15 -7 -20 -25 -20 -14 0 -25 4 -25 8 0 7 30 27 48
31 1 1 2 -8 2 -19z m-230 -10 c0 -40 -16 -73 -42 -86 -17 -9 -32 -14 -34 -11
-2 2 1 28 7 58 11 53 12 55 40 51 16 -2 29 -8 29 -12z m73 -9 c15 -6 13 -9
-17 -24 l-36 -17 0 25 c0 26 16 31 53 16z m147 -45 c0 -11 -14 -219 -31 -461
-35 -491 -30 -467 -110 -480 -22 -4 -43 -5 -45 -2 -3 3 18 198 46 433 28 236
54 449 56 474 8 66 9 67 48 62 29 -3 36 -9 36 -26z m-146 -356 c-24 -206 -50
-421 -56 -478 -6 -57 -16 -109 -22 -117 -6 -7 -29 -16 -51 -20 l-40 -6 -2 98
c-2 74 11 186 53 472 30 206 55 376 57 377 7 6 102 52 104 50 1 -1 -18 -170
-43 -376z m203 354 c3 -9 -5 -201 -18 -427 l-23 -410 -25 -23 c-14 -13 -26
-22 -28 -21 -2 2 63 885 66 895 3 9 23 -1 28 -14z m206 -33 c4 -4 4 -145 1
-314 l-7 -307 -104 -81 c-57 -44 -106 -79 -109 -76 -4 4 30 622 42 753 l5 61
82 -15 c45 -8 85 -17 90 -21z m-549 -356 c-27 -184 -51 -335 -54 -335 -3 0
-16 26 -29 57 l-25 56 44 265 43 264 31 19 c16 10 32 16 35 14 2 -3 -18 -155
-45 -340z m788 281 c13 -10 18 -41 25 -170 l8 -158 -40 -31 c-22 -17 -46 -35
-52 -40 -10 -8 -13 38 -13 217 l0 227 28 -16 c15 -9 34 -22 44 -29z m82 18 c9
-3 16 -17 16 -31 l0 -24 -30 21 c-44 31 -35 53 14 34z m-954 -231 c-21 -121
-40 -229 -42 -239 -2 -14 -8 -10 -30 18 l-27 35 35 184 c18 101 34 187 34 190
0 5 63 38 67 35 0 0 -16 -101 -37 -223z m1063 169 c5 -24 6 -46 3 -49 -12 -12
-64 38 -68 67 -4 29 -3 31 26 28 27 -3 31 -8 39 -46z m118 18 c4 0 9 -9 12
-19 5 -21 -10 -31 -49 -31 -13 0 -24 -4 -24 -10 0 -5 14 -10 31 -10 34 0 35
-15 3 -37 -17 -11 -23 -10 -42 3 -18 12 -22 25 -22 68 l0 53 43 -8 c23 -4 45
-8 48 -9z m189 6 c0 -14 -29 -31 -38 -21 -6 6 18 35 29 35 5 0 9 -6 9 -14z
m-1455 -178 c-15 -79 -29 -149 -31 -157 -3 -9 -25 6 -67 45 -34 33 -82 76
-106 95 l-44 36 134 70 c74 39 135 67 137 62 2 -5 -8 -73 -23 -151z m1038 140
c22 -20 26 -34 31 -113 l6 -91 -29 -22 -29 -21 -6 62 c-11 127 -13 207 -5 207
4 0 19 -10 32 -22z m119 -100 c6 -28 3 -36 -20 -55 -36 -29 -42 -29 -42 6 0
15 -3 50 -7 77 l-6 48 34 -22 c23 -14 36 -32 41 -54z m231 23 c21 -8 26 -19
32 -67 4 -31 9 -64 12 -72 7 -17 -73 32 -99 61 -11 11 -18 35 -18 59 0 38 2
40 25 34 13 -3 35 -10 48 -15z m-93 -26 c0 -28 -3 -29 -31 -14 -16 8 -18 13
-8 25 18 22 39 17 39 -11z m173 -7 c15 -12 51 -157 41 -167 -2 -3 -15 6 -28
18 -17 16 -26 38 -31 78 -4 31 -9 62 -12 70 -6 16 8 17 30 1z m-205 -33 l38
-25 18 -158 c10 -86 20 -169 23 -184 5 -25 2 -27 -51 -39 -31 -7 -58 -10 -61
-8 -2 3 -13 95 -24 205 -17 180 -18 201 -3 217 19 21 15 22 60 -8z m315 -29
c66 -44 145 -125 191 -195 63 -96 20 -97 -124 -1 l-105 70 -12 62 c-14 72 -15
98 -7 98 3 0 29 -16 57 -34z m-398 -162 c8 -87 17 -176 19 -196 4 -36 2 -38
-32 -48 -20 -5 -37 -8 -39 -6 -2 1 -9 85 -16 185 l-12 183 29 24 c15 14 30 23
32 21 2 -2 11 -75 19 -163z m230 91 c28 -21 32 -31 48 -131 9 -60 17 -114 17
-121 0 -10 -97 -40 -105 -32 -1 2 -10 67 -19 144 -9 77 -19 153 -23 169 l-5
30 28 -18 c16 -10 43 -29 59 -41z m-321 -172 c7 -92 10 -171 7 -174 -3 -4 -18
-9 -33 -13 -25 -6 -27 -4 -32 36 -3 24 -8 97 -11 164 l-7 121 29 21 c15 11 29
19 31 17 2 -2 9 -79 16 -172z m414 110 c14 -13 24 -43 34 -100 14 -79 14 -83
-5 -89 -10 -3 -21 -3 -24 0 -10 9 -41 206 -33 206 4 0 17 -8 28 -17z m-505
-115 c4 -62 7 -131 7 -154 l0 -41 -51 -11 c-28 -7 -55 -12 -60 -12 -5 0 -9 57
-9 129 l0 129 48 36 c26 19 50 36 53 36 3 0 9 -51 12 -112z m640 27 c42 -27
77 -53 77 -56 0 -8 -130 -32 -137 -25 -9 9 -32 137 -23 134 4 -2 41 -25 83
-53z m182 -76 c11 -17 -1 -21 -15 -4 -8 9 -8 15 -2 15 6 0 14 -5 17 -11z m-24
-30 c46 -29 48 -32 60 -98 25 -142 3 -361 -57 -568 l-15 -52 -37 6 c-20 3 -38
7 -40 8 -1 1 -31 158 -65 349 -63 341 -63 347 -43 351 12 3 48 11 81 19 33 8
62 15 64 15 2 1 26 -13 52 -30z m-1088 -179 c-6 -6 -190 -50 -208 -50 -3 0 -5
9 -5 20 0 14 35 48 108 105 l107 85 3 -77 c2 -42 -1 -79 -5 -83z m851 143 c13
-47 119 -664 114 -668 -3 -3 -17 -3 -30 0 -25 6 -26 13 -80 338 -30 183 -53
335 -51 340 8 14 42 7 47 -10z m-74 1 c0 -8 99 -603 106 -637 l6 -28 -74 7
c-40 3 -74 7 -75 8 -3 3 -73 583 -73 609 0 20 7 25 48 34 64 14 62 14 62 7z
m-100 -340 l36 -306 -63 4 c-34 2 -66 7 -70 11 -7 8 -63 568 -57 575 4 6 109
29 113 25 3 -2 21 -141 41 -309z m-175 224 c10 -88 45 -477 45 -499 0 -19 -4
-21 -41 -16 -22 3 -42 7 -44 9 -2 2 -11 103 -19 223 -9 121 -18 243 -21 272
-5 47 -3 52 17 56 55 10 56 9 63 -45z m-105 15 c0 -19 28 -418 34 -480 3 -42
3 -43 -28 -43 -17 0 -36 4 -42 8 -7 4 -14 66 -18 157 -3 83 -9 198 -13 257
l-6 106 24 5 c44 8 49 7 49 -10z m-82 -257 c7 -136 11 -250 8 -253 -3 -3 -39
-2 -81 2 l-75 7 1 121 c1 67 4 174 8 236 l6 115 50 12 c28 6 55 11 60 9 6 -1
15 -103 23 -249z m-314 -18 c-4 -112 -8 -205 -10 -207 -2 -2 -55 0 -119 4
l-116 7 5 27 c3 14 8 92 11 174 l7 147 27 7 c64 16 177 41 189 42 10 1 11 -40
6 -201z m-244 183 c0 -5 -7 -12 -16 -15 -24 -9 -28 -7 -14 9 14 17 30 20 30 6z
m-3345 -41 c138 -6 279 -11 315 -13 l65 -2 -3 -36 c-2 -19 -9 -58 -16 -85
l-12 -49 -371 -3 -370 -2 -6 67 c-4 38 -7 86 -7 107 l0 39 78 -6 c42 -4 190
-11 327 -17z m3341 -67 c-3 -38 -8 -112 -12 -165 l-6 -98 -30 0 c-27 0 -29 2
-24 28 2 15 8 77 11 137 8 154 11 165 42 165 25 0 25 -1 19 -67z m-85 -105
c-7 -78 -13 -143 -14 -144 -1 -1 -29 21 -62 50 -57 52 -59 55 -56 97 1 24 6
49 9 56 13 22 127 104 130 93 2 -5 -1 -74 -7 -152z m-76 132 c-3 -5 -15 -15
-26 -20 -15 -8 -19 -7 -19 4 0 13 14 21 43 25 5 0 5 -3 2 -9z m-65 -29 c0 -11
-16 -33 -36 -50 -31 -25 -40 -28 -56 -18 -31 20 -20 60 22 74 52 18 70 16 70
-6z m-10 -80 c0 -5 -3 -17 -6 -25 -5 -13 -9 -14 -20 -5 -11 9 -11 15 -3 25 13
16 29 18 29 5z m-96 -10 c3 -4 -4 -17 -16 -27 -20 -18 -21 -18 -15 -1 4 10 7
23 7 28 0 11 17 12 24 0z m79 -110 c-3 -25 -6 -47 -7 -48 -1 -1 -29 1 -64 4
-62 6 -62 6 -62 37 1 24 10 38 42 63 l42 31 27 -21 c26 -18 28 -24 22 -66z
m86 -23 c17 -15 31 -29 31 -31 0 -4 -92 3 -98 8 -1 1 1 16 4 33 7 35 11 34 63
-10z"/>
</g>
</svg>
