<?xml version="1.0" standalone="no"?>
<!DOCTYPE svg PUBLIC "-//W3C//DTD SVG 20010904//EN"
 "http://www.w3.org/TR/2001/REC-SVG-20010904/DTD/svg10.dtd">
<svg version="1.0" xmlns="http://www.w3.org/2000/svg"
 width="1143.000000pt" height="1280.000000pt" viewBox="0 0 1143.000000 1280.000000"
 preserveAspectRatio="xMidYMid meet">
<metadata>
Created by potrace 1.15, written by Peter Selinger 2001-2017
</metadata>
<g transform="translate(0.000000,1280.000000) scale(0.100000,-0.100000)"
fill="#000000" stroke="none">
<path d="M6000 12705 c-82 -28 -110 -65 -110 -147 0 -53 2 -59 25 -68 16 -6
25 -17 25 -32 0 -34 11 -46 45 -50 l30 -3 6 -165 c4 -91 10 -213 13 -271 l6
-107 -34 -6 -34 -7 4 -52 c7 -82 24 -403 24 -447 0 -38 1 -39 29 -34 l29 6 6
-73 c3 -41 8 -131 11 -201 l6 -127 -50 -36 c-45 -32 -50 -40 -53 -78 -2 -35
-7 -43 -25 -45 -25 -4 -27 -12 -17 -86 6 -42 9 -46 34 -46 l27 0 7 -177 c3
-98 7 -232 7 -298 l1 -120 -113 -10 c-63 -5 -118 -13 -124 -16 -5 -4 -90 -10
-187 -14 l-178 -7 0 -35 0 -35 258 6 c141 4 278 9 305 12 l47 6 0 -84 0 -84
-89 -51 c-49 -28 -98 -54 -109 -57 -11 -4 -64 2 -118 14 -146 30 -161 28 -297
-36 -97 -47 -154 -65 -315 -105 -108 -26 -199 -46 -201 -44 -2 2 30 14 70 26
80 24 89 31 89 70 0 83 -165 92 -310 18 -30 -15 -68 -39 -84 -52 l-30 -24 -54
38 c-74 52 -127 60 -185 26 -102 -60 -187 -188 -187 -282 1 -126 126 -305 214
-305 39 0 110 53 163 121 26 32 52 59 60 59 18 0 17 -117 -2 -365 -21 -288
-38 -738 -31 -851 4 -55 13 -141 21 -190 8 -49 15 -92 15 -96 0 -4 -16 0 -35
8 -79 33 -137 14 -227 -74 l-58 -56 -32 18 c-52 31 -105 26 -192 -18 -75 -38
-77 -40 -94 -95 -10 -34 -17 -87 -17 -136 1 -72 4 -87 38 -152 39 -76 96 -140
133 -149 31 -8 70 15 148 86 l67 60 77 -6 c63 -5 94 -1 172 19 52 14 95 25 96
24 1 -1 -14 -90 -32 -197 -40 -227 -95 -571 -127 -785 -20 -140 -22 -182 -20
-607 1 -252 -1 -458 -4 -458 -7 0 -817 137 -913 155 -41 7 -78 11 -83 8 -4 -3
-16 2 -25 10 -9 8 -29 17 -44 21 -24 5 -28 12 -28 40 0 20 -6 36 -14 39 -9 4
-12 14 -9 25 3 15 -2 21 -21 26 l-26 6 0 113 c0 61 -3 148 -6 193 l-7 81 36 6
c57 9 155 57 172 84 32 48 -24 130 -81 118 -10 -2 -47 -6 -81 -9 l-61 -6 8 29
c7 24 3 35 -21 64 -54 65 -118 65 -170 -2 l-24 -30 -43 83 c-35 69 -51 89 -95
119 -49 34 -55 35 -107 29 l-55 -7 -10 39 c-19 72 -101 105 -162 67 -27 -17
-33 -27 -33 -56 0 -21 -4 -34 -10 -30 -5 3 -18 2 -27 -3 -10 -6 -50 -11 -90
-14 -68 -3 -72 -2 -87 23 -22 37 -3 199 24 199 33 0 29 13 -25 73 -52 59 -53
61 -39 88 19 37 18 46 -5 54 -11 3 -23 15 -26 25 -11 35 -62 80 -90 80 -20 0
-29 -7 -41 -35 -7 -19 -14 -43 -14 -54 0 -12 -11 -26 -25 -34 l-26 -13 21 -27
22 -28 -26 -64 c-30 -75 -31 -85 -12 -85 8 0 25 -30 41 -72 l26 -73 -22 -18
c-17 -14 -32 -17 -63 -12 -90 14 -96 16 -110 48 -18 44 -45 65 -92 72 -57 10
-89 -18 -88 -75 1 -38 -2 -43 -32 -58 -44 -21 -45 -49 -1 -60 24 -6 31 -14 29
-27 -2 -11 3 -24 12 -31 24 -17 35 -211 13 -245 -8 -13 -18 -43 -22 -66 -6
-37 -3 -46 19 -68 31 -31 32 -41 6 -55 -11 -6 -20 -20 -20 -31 0 -17 -5 -19
-34 -14 -28 6 -34 4 -39 -14 -3 -12 -1 -21 4 -21 5 0 9 -3 9 -8 0 -7 -160 -57
-164 -50 -1 2 -6 16 -11 32 -29 85 -160 93 -202 12 l-15 -29 -39 74 c-61 115
-106 148 -205 149 -31 0 -32 0 -27 45 5 39 2 47 -25 75 -64 64 -184 23 -186
-63 l-1 -37 -51 0 c-80 0 -114 10 -127 37 -9 21 1 94 39 258 3 14 -7 36 -30
65 -20 25 -36 54 -36 66 0 12 -11 26 -25 34 -15 8 -29 28 -35 48 -12 44 -37
72 -65 72 -31 0 -45 -19 -45 -64 0 -35 -6 -46 -37 -72 -37 -31 -38 -32 -19
-52 18 -21 18 -22 -7 -66 l-25 -46 44 -110 c24 -60 44 -116 44 -123 0 -8 -8
-21 -18 -30 -15 -14 -40 -17 -130 -17 l-112 0 6 25 c19 76 -73 143 -150 111
-47 -20 -70 -57 -64 -104 5 -33 2 -39 -25 -53 -67 -34 -57 -76 22 -86 24 -3
41 -11 41 -19 0 -7 10 -16 21 -19 21 -7 21 -11 15 -119 -6 -93 -4 -123 13
-184 10 -40 21 -74 23 -76 1 -1 29 0 60 2 l58 4 0 116 c-1 65 -7 150 -14 190
-17 100 -14 102 137 102 91 0 117 -3 117 -13 0 -8 10 -18 23 -24 22 -10 23
-12 14 -116 -8 -93 -6 -114 13 -184 l21 -80 52 4 c29 3 56 6 61 7 12 3 8 215
-5 303 -16 99 -12 103 106 103 85 0 93 -2 98 -21 3 -11 14 -23 24 -25 17 -5
19 -17 18 -159 l0 -153 -100 -31 c-57 -17 -138 -33 -187 -37 -82 -6 -88 -8
-88 -28 0 -18 -10 -25 -52 -38 -56 -17 -158 -14 -158 4 0 6 -10 8 -23 4 -21
-5 -23 -3 -19 31 l5 36 -69 -6 c-38 -4 -79 -7 -92 -7 -19 0 -23 -5 -20 -27 2
-19 10 -29 28 -33 22 -5 23 -7 7 -13 -10 -4 -27 -7 -38 -7 -10 0 -19 -6 -19
-13 0 -7 -16 -21 -35 -30 -44 -21 -50 -63 -10 -72 14 -3 36 -7 50 -10 14 -3
25 -10 25 -17 0 -6 7 -16 15 -22 8 -6 89 -158 180 -338 l166 -326 29 -175 c17
-96 37 -207 45 -247 22 -105 21 -117 -16 -125 -17 -4 -48 -24 -68 -44 -45 -45
-62 -102 -62 -208 0 -122 40 -214 131 -303 43 -42 88 -63 576 -269 291 -123
531 -225 533 -227 2 -2 14 -82 27 -176 12 -95 31 -218 43 -273 11 -55 29 -146
40 -202 35 -186 176 -476 353 -728 50 -71 157 -217 237 -324 80 -106 161 -215
179 -241 64 -93 116 -120 332 -168 331 -75 2417 -509 2775 -577 370 -70 1215
-29 1640 80 328 84 639 234 789 380 68 66 128 173 281 505 148 320 254 487
415 653 l115 119 115 -21 c85 -15 134 -30 186 -57 l70 -36 110 15 c60 9 201
18 314 21 l206 5 162 49 c90 27 164 51 166 53 2 2 6 21 9 41 5 36 4 38 -64 89
-66 48 -95 78 -46 47 12 -8 47 -30 79 -48 54 -32 56 -35 51 -67 l-6 -34 104 7
c57 4 105 8 107 9 2 2 -1 12 -7 23 -7 12 -7 35 -2 63 l9 44 1 -59 1 -58 54 4
c33 3 82 18 129 40 75 36 75 36 94 16 46 -51 132 -64 172 -27 19 18 22 29 18
66 -2 24 -16 61 -30 82 l-26 39 39 53 c22 29 38 54 36 56 -4 4 -192 -14 -232
-22 -17 -4 -25 7 -51 65 -17 39 -30 70 -28 70 2 0 17 -25 34 -55 19 -34 38
-55 49 -55 9 0 70 9 135 20 159 27 165 26 208 -16 l38 -37 63 18 c69 18 62 11
139 140 l18 31 -50 61 -50 61 26 100 c14 56 25 107 25 116 0 8 -38 35 -90 62
l-90 48 0 48 c0 33 -4 48 -13 48 -7 0 -73 -20 -147 -45 -73 -25 -135 -43 -137
-42 -2 2 93 43 209 90 117 48 243 99 279 114 l67 28 25 85 c14 46 24 86 23 88
-2 1 -53 12 -113 24 l-110 22 -152 -26 -152 -25 -26 20 -25 20 -67 -33 c-53
-27 -90 -37 -187 -50 l-121 -16 -28 22 -27 22 -132 -83 -132 -83 -190 -25
-189 -25 -18 20 c-17 20 -17 22 2 42 24 25 13 52 -15 43 -14 -5 -13 -2 4 9 16
12 22 26 22 55 0 43 -5 46 -57 24 -45 -19 -56 -19 -20 1 15 8 27 18 27 23 0 4
-172 11 -382 15 -211 4 -452 11 -537 17 -214 13 -508 56 -546 79 -16 10 -86
41 -154 70 -169 70 -260 118 -360 187 -84 57 -85 59 -119 142 -62 150 -123
188 -280 178 -45 -3 -88 -10 -96 -14 -8 -4 -48 -41 -91 -80 -42 -40 -80 -73
-86 -73 -5 0 -52 12 -104 27 l-95 27 0 36 c0 30 -5 39 -27 49 -26 12 -42 3
-43 -23 0 -5 -2 -7 -5 -5 -5 6 -48 770 -43 775 12 11 108 5 135 -9 54 -29 103
-22 152 19 39 34 52 38 194 65 143 27 152 27 170 11 14 -13 37 -17 87 -17 61
0 72 3 97 27 24 23 48 32 138 48 108 20 108 20 172 0 78 -24 103 -19 145 29
l32 36 90 -2 c50 -1 116 -3 146 -4 30 0 146 -10 258 -21 112 -10 216 -16 232
-13 38 8 91 69 131 146 30 61 31 63 18 123 -7 34 -20 84 -30 113 -17 50 -17
56 1 155 72 398 102 947 65 1178 -38 235 -135 518 -281 819 l-94 194 19 81
c16 71 17 102 10 251 -21 445 -65 688 -165 927 -71 168 -158 300 -294 442 -42
44 -57 66 -44 62 28 -9 50 25 70 107 15 59 15 65 -5 117 -29 78 -82 162 -111
178 -19 10 -44 11 -100 5 -41 -4 -135 -7 -208 -5 l-133 3 -55 -32 c-41 -23
-52 -34 -42 -41 16 -11 -49 -4 -237 24 -125 19 -178 21 -480 19 -263 -2 -346
-6 -366 -16 l-26 -14 -6 81 c-4 45 -5 83 -3 85 4 5 436 23 544 23 l83 0 -2 43
c-2 24 1 49 5 55 17 27 -45 29 -338 10 -164 -10 -300 -18 -301 -16 -3 3 -45
549 -45 579 0 13 14 18 65 24 l66 7 -3 66 c-3 66 -4 67 -33 72 -28 5 -30 8
-33 58 -3 50 -5 53 -33 59 -16 3 -28 7 -26 10 2 2 46 14 98 27 52 14 128 34
169 45 41 12 86 21 99 21 14 0 70 -21 125 -47 100 -47 102 -48 201 -48 96 1
106 3 238 53 76 28 168 57 204 63 75 13 206 7 296 -15 31 -7 57 -10 57 -5 0 4
-16 101 -35 216 -52 315 -73 495 -85 748 -17 370 -33 496 -63 508 -16 6 -112
-24 -357 -109 -185 -65 -200 -68 -285 -69 -66 0 -117 8 -194 28 -120 31 -205
34 -319 11 -88 -18 -294 -85 -294 -97 -1 -4 5 -91 12 -193 11 -162 10 -209 -4
-193 -4 4 -46 508 -46 546 0 16 8 25 25 29 21 5 25 12 25 40 0 30 4 35 30 41
38 7 38 26 1 85 -50 79 -179 117 -281 83z m315 -1547 c17 -212 17 -213 10
-206 -6 6 -35 310 -35 367 0 19 3 32 6 29 3 -3 12 -89 19 -190z m-100 -1439
c14 -6 9 -7 -15 -3 -19 4 -44 11 -55 15 -14 6 -9 7 15 3 19 -4 44 -11 55 -15z
m-4037 -3457 c18 -23 16 -28 -20 -51 -18 -11 -49 -43 -68 -70 -19 -28 -38 -50
-41 -51 -7 0 -44 169 -38 173 35 20 51 23 98 19 35 -2 61 -10 69 -20z m742
-107 c90 -114 112 -131 204 -159 53 -16 71 -26 70 -39 0 -9 -1 -50 -2 -89 l-2
-73 -24 50 c-43 92 -148 167 -252 180 -36 5 -54 13 -64 29 -30 47 -107 129
-145 152 -38 24 -39 24 -11 21 20 -2 44 -20 77 -58 l48 -54 1 68 c0 47 4 67
13 67 6 0 46 -43 87 -95z m-573 50 c-15 -14 -33 -25 -40 -25 -6 0 4 11 23 25
43 32 53 32 17 0z m146 -14 c26 -10 27 -13 27 -86 0 -53 4 -75 13 -75 6 0 3
-6 -8 -12 -11 -6 -32 -22 -47 -35 l-26 -25 -28 53 c-20 39 -28 74 -32 128 l-5
74 39 -5 c21 -4 51 -11 67 -17z m177 -99 c36 -25 69 -49 75 -54 5 -4 -21 -8
-58 -8 l-67 0 20 20 c11 11 20 24 20 29 0 5 -22 23 -50 41 -27 18 -50 34 -50
36 0 8 43 -17 110 -64z m-425 -239 c-1 -1 -18 9 -38 22 l-36 25 -10 -37 c-5
-21 -14 -58 -19 -83 l-10 -45 -1 63 c-1 67 25 158 77 270 l27 57 5 -135 c4
-74 6 -136 5 -137z m137 7 c-13 -31 -18 -35 -20 -19 -3 16 22 59 34 59 1 0 -5
-18 -14 -40z m-1152 -241 c22 -23 39 -43 38 -44 -2 0 -30 -9 -63 -19 -33 -10
-66 -21 -72 -23 -10 -4 -13 10 -13 48 0 30 -7 92 -15 138 -11 66 -12 87 -3 92
9 6 25 -17 51 -71 20 -44 55 -98 77 -121z m679 105 c12 -11 -9 -10 -44 2 l-40
13 40 -6 c22 -3 42 -7 44 -9z m24 -41 c-7 -2 -19 -2 -25 0 -7 3 -2 5 12 5 14
0 19 -2 13 -5z m262 -26 c6 -7 4 -8 -8 -3 -10 3 -27 6 -38 6 -10 0 -19 7 -19
15 0 12 5 13 28 3 15 -7 32 -16 37 -21z m1111 -382 c4 -20 3 -27 -3 -20 -16
16 -82 264 -88 330 -5 46 5 20 40 -110 25 -93 48 -183 51 -200z m-2529 -131
c-3 -3 -12 -4 -19 -1 -8 3 -5 6 6 6 11 1 17 -2 13 -5z m96 -11 c-7 -2 -19 -2
-25 0 -7 3 -2 5 12 5 14 0 19 -2 13 -5z m5707 -107 c0 -2 -7 -7 -16 -10 -8 -3
-12 -2 -9 4 6 10 25 14 25 6z m-3173 -198 c-3 -8 -6 -5 -6 6 -1 11 2 17 5 13
3 -3 4 -12 1 -19z m2846 -603 c5 -193 4 -222 -6 -180 -9 34 -17 49 -27 48 -8
-1 -109 -20 -223 -43 -115 -23 -215 -39 -222 -36 -7 2 -27 25 -44 50 l-32 45
3 137 3 137 186 112 c170 103 193 114 265 127 l79 14 6 -91 c4 -49 9 -193 12
-320z m-1723 309 c22 -9 40 -22 40 -29 0 -14 -10 -18 -65 -29 -24 -5 -26 -4
-12 4 21 14 22 28 0 52 -20 22 -15 22 37 2z m-316 -99 c-4 -8 -1 -22 5 -29 8
-10 9 -16 1 -21 -16 -10 -50 4 -50 21 0 8 0 17 -1 22 0 4 10 10 23 14 13 3 24
6 25 7 1 1 0 -6 -3 -14z m-94 -75 c-8 -5 -22 -10 -30 -10 -13 0 -13 1 0 10 8
5 22 10 30 10 13 0 13 -1 0 -10z m479 -141 c1 -4 -8 -9 -20 -12 -13 -3 -19 -1
-16 6 7 21 -12 47 -31 41 -9 -4 -3 3 13 15 l30 21 12 -33 c6 -17 12 -35 12
-38z m911 -43 c0 -102 -1 -105 -29 -134 -38 -37 -54 -97 -42 -152 10 -46 54
-118 76 -127 10 -3 15 -19 15 -44 0 -37 -2 -39 -30 -39 -29 0 -33 7 -145 230
-63 126 -115 233 -115 238 0 7 244 129 263 131 4 1 7 -46 7 -103z m-1188 -12
c-24 -16 -30 -50 -10 -56 8 -3 9 -6 1 -11 -11 -7 -63 28 -63 42 0 5 17 15 38
24 49 20 62 21 34 1z m357 -188 c24 -26 21 -46 -7 -46 -12 0 -13 3 -4 12 15
15 -4 52 -24 44 -9 -3 -12 -1 -9 4 9 15 20 12 44 -14z m1511 -70 c0 -8 -10
-16 -22 -18 -27 -4 -53 -47 -71 -118 -14 -54 -14 -54 -78 -80 -58 -24 -71 -26
-139 -19 -41 4 -105 8 -142 8 l-68 1 0 39 c0 35 6 44 53 84 l52 45 205 35
c113 19 206 36 208 36 1 1 2 -5 2 -13z m-1810 -41 c-7 -8 -10 -25 -6 -40 5
-18 2 -25 -8 -25 -8 0 -16 13 -18 31 -4 24 0 33 16 39 29 12 30 12 16 -5z
m470 -195 c0 -3 -23 -15 -52 -26 -76 -28 -76 -28 -39 -4 23 14 32 27 28 39 -4
16 -1 17 29 8 19 -6 34 -13 34 -17z m-348 -77 c-24 -10 -33 -40 -16 -57 14
-15 14 -16 -4 -16 -59 0 -70 37 -19 63 17 8 37 16 42 16 6 -1 4 -3 -3 -6z
m427 -209 c-34 -19 -48 -17 -42 6 3 12 -1 22 -11 26 -9 3 -13 10 -10 15 3 5
24 -1 46 -12 l42 -21 -25 -14z m-296 -71 c-23 -12 -33 -24 -33 -40 0 -13 5
-23 11 -23 5 0 7 -4 4 -10 -7 -12 -75 19 -75 34 0 6 24 21 53 33 62 25 86 29
40 6z m-1063 -133 c13 -8 13 -10 -2 -10 -9 0 -20 5 -23 10 -8 13 5 13 25 0z
m80 -70 c0 -16 -2 -30 -4 -30 -2 0 -6 14 -8 30 -3 17 -1 30 4 30 4 0 8 -13 8
-30z m5720 -30 c11 -8 7 -9 -15 -4 -37 8 -45 14 -19 14 10 0 26 -5 34 -10z
m865 -321 c6 -25 2 -36 -21 -60 -26 -27 -27 -31 -16 -66 8 -24 8 -39 2 -41 -6
-2 -10 -10 -10 -17 0 -8 -28 -23 -66 -35 l-65 -22 16 -26 c15 -25 15 -25 -8 2
-23 26 -33 29 -100 34 -155 10 -272 -27 -403 -127 -87 -66 -134 -92 -134 -74
0 4 14 16 30 25 16 9 38 31 49 49 16 26 83 65 363 214 189 101 346 181 350
179 3 -2 10 -18 13 -35z m337 34 c-62 -3 -73 -6 -68 -20 5 -11 2 -14 -11 -8
-10 4 -47 11 -82 16 -36 5 -67 12 -70 14 -2 3 65 4 150 3 85 -1 121 -4 81 -5z
m-5263 -307 c1 -83 -5 -67 -12 29 -3 48 -2 70 3 55 4 -14 8 -52 9 -84z m5326
-116 c9 -16 13 -30 11 -30 -3 0 -12 14 -21 30 -9 17 -13 30 -11 30 3 0 12 -13
21 -30z m-491 -149 c14 -16 15 -19 2 -24 -9 -4 -16 3 -19 19 -5 29 -5 29 17 5z"/>
</g>
</svg>
