<?xml version="1.0" standalone="no"?>
<!DOCTYPE svg PUBLIC "-//W3C//DTD SVG 20010904//EN"
 "http://www.w3.org/TR/2001/REC-SVG-20010904/DTD/svg10.dtd">
<svg version="1.0" xmlns="http://www.w3.org/2000/svg"
 width="1087.000000pt" height="1280.000000pt" viewBox="0 0 1087.000000 1280.000000"
 preserveAspectRatio="xMidYMid meet">
<metadata>
Created by potrace 1.15, written by Peter Selinger 2001-2017
</metadata>
<g transform="translate(0.000000,1280.000000) scale(0.100000,-0.100000)"
fill="#000000" stroke="none">
<path d="M5225 12751 c-190 -46 -673 -161 -1830 -438 -286 -68 -691 -164 -900
-214 -209 -50 -383 -94 -387 -98 -5 -4 -9 -597 -10 -1318 l-3 -1311 -570 559
c-313 308 -595 579 -626 603 -122 97 -252 149 -580 235 -107 27 -221 59 -253
71 -33 11 -60 20 -62 20 -1 0 9 -32 22 -71 13 -39 49 -166 80 -282 75 -286
125 -412 212 -527 18 -25 430 -450 915 -944 538 -549 885 -909 889 -925 4 -14
16 -89 28 -166 95 -615 387 -1267 834 -1860 168 -223 289 -360 542 -612 l253
-253 -835 -2 -835 -3 312 -355 c171 -195 320 -364 330 -376 20 -21 19 -21
-309 -395 l-329 -374 434 -3 c262 -1 433 -6 431 -11 -2 -6 -99 -103 -215 -216
l-213 -207 -24 19 c-14 10 -258 209 -544 443 l-519 425 -11 59 c-34 177 -242
236 -359 103 -58 -66 -67 -144 -27 -226 37 -74 96 -111 178 -112 l61 0 510
-640 c281 -352 514 -646 520 -654 15 -22 -62 -97 -90 -88 -34 11 -68 4 -93
-20 -19 -17 -23 -30 -20 -62 l3 -40 -38 4 c-60 5 -107 -51 -87 -103 8 -23 7
-23 -34 -19 -38 5 -45 2 -70 -28 -22 -26 -26 -39 -22 -64 6 -30 6 -31 -29 -27
-28 3 -40 -1 -66 -27 -26 -27 -31 -37 -26 -66 5 -33 5 -33 -28 -28 -29 5 -39
0 -66 -26 -26 -26 -30 -38 -27 -66 4 -35 3 -35 -27 -29 -25 4 -38 0 -64 -22
-30 -25 -33 -32 -28 -70 4 -41 4 -42 -19 -34 -52 20 -108 -27 -103 -87 l4 -38
-38 4 c-29 2 -44 -2 -62 -19 -28 -27 -39 -64 -26 -89 10 -17 7 -18 -33 -14
-38 5 -45 2 -70 -28 -22 -26 -27 -40 -23 -65 5 -32 5 -32 -28 -27 -29 5 -39 0
-66 -26 -26 -27 -31 -37 -26 -66 5 -33 5 -33 -27 -28 -25 4 -39 -1 -65 -23
-29 -24 -32 -32 -29 -66 3 -36 2 -39 -18 -34 -32 8 -79 -11 -94 -39 -7 -14
-10 -39 -7 -59 5 -34 5 -35 -19 -26 -29 11 -62 0 -88 -28 -14 -16 -17 -31 -14
-64 5 -40 2 -46 -39 -89 l-44 -46 -57 10 c-131 23 -291 -32 -390 -132 -188
-188 -189 -476 -3 -662 186 -186 476 -185 662 3 102 101 155 259 132 390 l-10
57 47 46 c42 41 49 45 73 36 61 -23 131 42 108 102 -8 22 -7 23 20 19 16 -2
40 -1 54 2 32 8 58 58 50 95 -6 26 -4 28 19 24 63 -12 114 37 102 97 -5 27 -4
28 32 23 31 -4 42 0 65 23 23 23 28 35 25 65 -3 36 -2 37 23 32 36 -7 87 21
95 53 4 13 4 38 0 54 -5 28 -4 29 20 18 19 -9 32 -8 59 5 37 18 50 47 43 96
-4 27 -3 28 19 20 59 -22 130 50 105 106 -11 23 -10 24 18 19 16 -4 41 -4 54
0 32 8 60 59 53 95 -5 25 -4 26 32 23 30 -3 42 2 65 25 23 23 27 34 23 64 l-5
37 37 -5 c29 -4 41 0 65 21 23 23 27 33 24 66 -3 37 -2 38 23 33 59 -11 108
41 96 103 -4 23 -2 25 24 19 60 -13 115 46 99 106 -7 25 -6 27 19 19 64 -18
128 49 102 107 -11 24 -9 30 28 66 30 30 43 38 53 30 7 -6 258 -205 558 -443
300 -239 588 -467 641 -509 l96 -76 0 -56 c0 -117 89 -205 208 -203 90 1 155
45 189 126 55 131 -49 288 -191 288 -21 0 -195 207 -832 987 l-83 102 383 391
383 390 1391 0 1391 0 383 -390 383 -390 -95 -118 c-555 -682 -795 -967 -818
-970 -59 -8 -102 -25 -136 -55 -90 -79 -97 -214 -15 -300 41 -44 81 -60 147
-61 119 -2 208 86 208 203 l0 56 604 480 c332 264 627 498 654 519 l50 40 40
-40 c37 -37 39 -43 28 -67 -26 -58 38 -125 102 -107 26 8 27 7 19 -15 -22 -57
38 -124 99 -110 26 6 28 4 24 -19 -12 -62 37 -114 96 -103 25 5 26 4 23 -33
-3 -32 1 -44 23 -66 22 -22 33 -26 65 -21 l38 5 -5 -37 c-4 -29 0 -41 21 -65
23 -23 33 -27 66 -24 37 3 38 2 33 -23 -7 -36 21 -87 53 -95 13 -4 38 -4 54 0
28 5 29 4 18 -19 -25 -56 46 -128 105 -106 22 8 23 7 19 -20 -7 -49 6 -78 43
-96 27 -13 40 -14 59 -5 24 11 25 10 20 -18 -4 -16 -4 -41 0 -54 8 -32 59 -60
95 -53 25 5 26 4 23 -32 -3 -30 2 -42 25 -65 23 -23 34 -27 65 -23 36 5 37 4
32 -23 -12 -60 39 -109 102 -97 23 4 25 2 19 -24 -8 -37 18 -87 50 -95 14 -3
38 -4 54 -2 27 4 28 3 20 -19 -23 -60 47 -125 108 -102 24 9 31 5 73 -36 l46
-45 -10 -65 c-20 -135 31 -281 133 -384 186 -187 476 -188 662 -2 272 272 119
733 -262 792 -51 8 -92 9 -131 2 l-57 -10 -44 46 c-41 43 -44 49 -39 89 3 33
0 48 -14 64 -26 28 -59 39 -88 28 -23 -8 -23 -7 -19 33 4 36 1 46 -22 67 -19
18 -37 24 -63 24 -37 -1 -38 -1 -34 32 3 27 -2 39 -27 65 -27 26 -37 31 -66
26 -33 -5 -33 -5 -28 28 5 29 0 39 -26 66 -26 25 -38 30 -65 27 -33 -4 -34 -3
-29 27 4 24 -1 39 -23 64 -25 30 -32 33 -70 28 -40 -4 -43 -3 -33 14 13 25 2
62 -26 89 -18 17 -33 21 -62 19 l-38 -4 4 38 c5 60 -51 107 -103 87 -23 -8
-23 -7 -19 34 5 38 2 45 -28 70 -26 22 -39 26 -64 22 -30 -6 -31 -6 -27 29 3
28 -1 40 -27 66 -27 26 -37 31 -66 26 -33 -5 -33 -5 -28 28 5 29 0 39 -26 66
-26 26 -38 30 -66 27 -35 -4 -35 -3 -29 27 4 25 0 38 -22 64 -25 30 -32 33
-70 28 -41 -4 -42 -4 -34 19 20 52 -27 108 -87 103 l-38 -4 3 40 c3 32 -1 45
-20 62 -25 24 -59 31 -93 20 -28 -10 -105 66 -90 88 6 8 240 302 520 654 l510
640 61 0 c82 1 141 38 178 112 40 82 31 160 -27 226 -117 133 -321 76 -359
-101 l-13 -61 -515 -423 c-283 -232 -527 -432 -543 -443 l-27 -21 -213 207
c-116 113 -213 210 -215 216 -2 5 169 10 431 11 l434 3 -329 374 c-328 374
-329 374 -309 395 10 12 159 181 330 376 l312 355 -827 5 -827 5 121 113 c131
123 342 349 473 507 545 660 911 1417 1018 2110 12 77 25 150 29 162 4 11 326
347 717 745 1097 1118 1085 1105 1131 1184 63 107 107 229 168 461 31 116 67
243 80 282 13 39 23 71 22 71 -2 0 -29 -9 -62 -20 -32 -12 -151 -45 -264 -75
-247 -64 -377 -110 -478 -167 -79 -45 -56 -22 -1068 -1011 l-224 -219 0 1315
c0 724 -4 1318 -8 1321 -5 3 -179 45 -388 95 -208 50 -615 147 -904 216 -1366
326 -1982 472 -2015 478 -18 4 -107 -13 -230 -42z m-1065 -7832 l35 -27 -24
-26 c-24 -25 -27 -26 -158 -26 l-133 0 0 150 0 150 123 -97 c67 -54 138 -110
157 -124z m2830 61 l0 -140 -133 0 c-124 0 -135 2 -153 21 -19 21 -19 21 16
48 19 14 86 68 150 118 63 51 116 93 118 93 1 0 2 -63 2 -140z"/>
</g>
</svg>
