<?xml version="1.0" standalone="no"?>
<!DOCTYPE svg PUBLIC "-//W3C//DTD SVG 20010904//EN"
 "http://www.w3.org/TR/2001/REC-SVG-20010904/DTD/svg10.dtd">
<svg version="1.0" xmlns="http://www.w3.org/2000/svg"
 width="1230.000000pt" height="1280.000000pt" viewBox="0 0 1230.000000 1280.000000"
 preserveAspectRatio="xMidYMid meet">
<metadata>
Created by potrace 1.15, written by Peter Selinger 2001-2017
</metadata>
<g transform="translate(0.000000,1280.000000) scale(0.100000,-0.100000)"
fill="#000000" stroke="none">
<path d="M4597 12785 c-15 -14 -23 -253 -30 -885 l-2 -225 -274 -70 c-266 -68
-275 -71 -282 -97 -8 -31 3 -39 44 -31 22 4 27 2 27 -14 0 -11 -41 -102 -90
-203 -50 -100 -102 -210 -117 -244 -14 -33 -47 -104 -73 -156 -57 -114 -199
-440 -228 -527 -31 -91 -35 -130 -22 -219 18 -118 112 -397 161 -478 l18 -29
5 24 c2 13 7 57 10 96 11 138 49 210 143 270 73 46 231 125 318 158 128 48
335 109 343 100 2 -2 0 -126 -5 -276 l-8 -273 -160 -36 c-88 -21 -268 -60
-400 -89 -303 -65 -331 -72 -379 -83 -21 -5 -50 -21 -63 -35 -24 -23 -24 -26
-9 -41 8 -9 35 -19 60 -22 l43 -5 -73 -172 c-90 -214 -196 -488 -237 -613 -16
-52 -45 -136 -63 -187 -183 -502 -286 -1156 -255 -1609 10 -142 14 -165 41
-223 39 -82 142 -185 230 -229 104 -52 132 -43 161 57 16 54 96 144 185 207
82 58 259 142 409 193 138 47 274 66 397 55 l77 -7 7 -46 c7 -43 -3 -772 -10
-779 -2 -1 -55 -7 -117 -12 -140 -12 -238 -20 -684 -60 -60 -5 -218 -19 -350
-30 -260 -22 -306 -31 -336 -61 -22 -22 -24 -38 -6 -63 14 -20 100 -40 129
-30 11 3 36 3 56 -1 l37 -6 -3 -133 c-3 -114 0 -150 22 -249 14 -64 33 -131
42 -149 30 -60 85 -118 137 -145 56 -29 93 -32 284 -23 86 5 93 4 118 -20 15
-14 55 -68 90 -120 137 -206 323 -348 518 -394 l48 -11 0 -385 c-1 -212 -4
-549 -8 -749 l-6 -364 -161 7 c-165 7 -421 19 -740 36 -99 6 -214 10 -255 10
l-76 0 -75 122 c-41 67 -118 194 -171 281 l-97 159 5 57 c5 49 -1 75 -38 184
-51 149 -52 147 57 147 114 0 162 28 135 78 -15 27 -67 35 -190 27 l-107 -7
-27 41 c-33 50 -87 90 -189 142 -42 21 -85 51 -96 66 -21 31 -1075 1746 -1157
1884 l-51 86 8 104 c8 120 47 414 59 445 6 17 19 22 63 28 86 10 106 20 106
56 0 17 -6 33 -14 36 -15 6 -103 -7 -381 -56 -93 -16 -177 -30 -185 -30 -9 0
-68 87 -145 211 -71 116 -136 214 -144 217 -17 7 -45 -10 -49 -30 -2 -8 48
-105 111 -214 63 -109 113 -200 112 -202 -2 -2 -67 -15 -146 -30 l-144 -27 -3
-37 c-2 -26 1 -37 12 -40 12 -2 6 -18 -26 -73 -74 -127 -225 -438 -281 -580
-59 -149 -117 -341 -141 -465 -8 -41 -20 -106 -28 -145 -8 -42 -13 -138 -13
-240 1 -139 5 -189 24 -274 43 -198 117 -374 223 -533 70 -103 202 -242 270
-282 24 -14 113 -44 198 -66 174 -46 198 -58 149 -74 -17 -6 -38 -21 -46 -33
-13 -19 -12 -23 8 -42 20 -18 35 -21 120 -21 l96 0 28 -61 c26 -59 27 -69 29
-238 1 -180 6 -208 45 -238 28 -22 80 -14 150 22 88 46 128 46 174 3 18 -18
46 -55 62 -83 77 -139 91 -157 127 -176 21 -10 56 -19 78 -19 72 0 228 60 465
180 150 76 274 131 356 158 70 23 131 42 136 42 9 0 253 -419 253 -435 0 -4
-45 -5 -99 -2 l-99 7 -43 -33 c-91 -69 -141 -165 -161 -308 -13 -92 0 -191 34
-273 66 -155 372 -638 522 -824 44 -56 62 -68 156 -114 l106 -51 249 -341
c137 -188 364 -497 504 -687 l255 -347 161 -6 c377 -15 2586 -52 4565 -76
1683 -21 2000 -28 2065 -45 33 -8 66 -15 72 -15 40 0 61 96 133 600 51 356 67
461 72 465 2 2 37 19 78 40 41 20 162 85 268 143 166 91 196 111 212 142 18
36 70 199 110 347 l22 81 45 7 c63 9 89 23 103 54 7 14 14 88 17 163 l6 137
-28 37 -28 36 5 404 c4 361 6 405 21 422 26 29 21 52 -22 92 -27 26 -62 44
-119 63 -45 15 -88 27 -96 27 -8 0 -32 21 -54 46 -34 40 -47 47 -98 58 -33 7
-129 37 -214 67 l-155 54 -140 0 c-164 0 -281 -21 -365 -66 -129 -68 -220
-108 -297 -129 l-82 -24 -78 36 c-195 90 -440 139 -623 125 -42 -3 -82 -2 -89
3 -12 7 -15 133 -22 737 -4 400 -8 830 -8 954 l-1 225 268 13 c147 6 339 16
427 21 88 5 273 14 410 20 415 18 485 30 485 79 0 13 -13 24 -41 35 -36 15
-63 15 -233 7 -105 -6 -288 -15 -406 -21 -118 -6 -296 -15 -395 -20 -99 -5
-245 -12 -325 -15 -80 -3 -155 -8 -167 -11 -23 -4 -23 -4 -23 123 l0 128 438
3 c389 3 708 14 720 27 3 2 -28 39 -67 81 -83 88 -191 247 -281 413 -49 89
-66 130 -76 190 -44 250 -68 481 -85 831 -10 206 -9 255 6 395 30 290 44 449
45 512 0 91 10 110 62 118 67 11 108 31 108 53 0 34 -25 44 -102 43 -69 -1
-422 -29 -641 -51 -54 -6 -111 -10 -127 -10 l-30 0 0 81 c0 79 1 81 23 76 119
-29 238 -41 397 -42 96 0 187 3 202 8 l28 7 -88 123 c-163 226 -341 503 -355
552 -18 61 -40 314 -41 480 l-1 190 46 5 c45 5 79 23 79 41 0 12 -72 11 -145
-1 -33 -6 -81 -14 -106 -19 l-46 -8 -6 261 c-4 144 -7 383 -7 532 0 262 -1
272 -21 290 -21 19 -21 18 -40 -5 -17 -21 -19 -43 -20 -265 -1 -132 -5 -374
-8 -536 l-6 -294 -35 -8 c-85 -18 -745 -128 -1217 -203 -216 -34 -285 -45
-413 -65 -74 -12 -159 -26 -189 -31 -30 -5 -65 -9 -78 -9 l-23 0 0 265 0 265
73 -6 c343 -26 639 -91 872 -189 61 -26 130 -53 154 -61 l43 -14 -18 28 c-10
14 -65 92 -124 172 -144 197 -180 251 -240 363 -69 128 -110 251 -121 362 -10
105 -11 710 -1 804 l7 64 59 21 c99 35 102 83 4 71 -26 -3 -140 -26 -255 -51
-290 -62 -443 -94 -458 -94 -10 0 -14 119 -17 563 -3 309 -8 570 -12 579 -13
28 -46 33 -69 10 -20 -21 -21 -34 -27 -597 -4 -330 -10 -579 -16 -584 -5 -4
-139 -36 -299 -70 -580 -124 -570 -121 -570 -156 0 -16 8 -21 42 -23 l41 -3
-122 -122 c-68 -67 -140 -148 -160 -180 -58 -89 -127 -223 -141 -275 -8 -26
-23 -72 -34 -103 -36 -106 -55 -244 -55 -419 0 -183 10 -264 59 -455 28 -108
55 -255 55 -296 0 -6 10 -9 23 -7 22 3 22 6 22 138 0 86 4 143 12 156 32 55
234 203 358 261 153 72 301 100 581 110 l184 6 -6 -279 c-4 -153 -8 -281 -10
-283 -2 -2 -25 -7 -51 -12 -132 -21 -772 -123 -943 -150 -348 -54 -372 -60
-399 -93 -10 -12 -9 -16 4 -24 14 -7 0 -41 -103 -253 -187 -381 -361 -783
-487 -1123 -93 -253 -86 -236 -94 -236 -7 0 -41 109 -84 270 -30 113 -30 118
-29 353 0 130 5 306 11 390 36 505 60 797 90 1093 4 44 6 94 4 111 -6 36 -14
32 139 64 114 24 151 45 146 82 -2 13 -14 25 -31 31 -29 10 -59 5 -562 -105
-126 -27 -273 -59 -325 -70 -52 -11 -103 -23 -112 -25 -17 -5 -18 12 -18 256
l0 262 43 -7 c123 -21 295 -86 525 -200 96 -47 177 -85 182 -85 4 0 -41 116
-100 258 -120 287 -247 627 -281 748 -17 62 -23 115 -27 244 -4 154 13 478 27
497 3 5 19 13 35 18 40 14 55 40 35 61 -15 14 -34 11 -233 -38 -119 -30 -217
-54 -218 -53 0 0 -4 239 -7 531 -6 560 -7 564 -52 564 -9 0 -24 -7 -32 -15z
m5047 -4311 c3 -9 6 -53 6 -98 l0 -83 -92 -6 c-51 -4 -142 -11 -203 -17 -411
-37 -580 -49 -601 -44 -21 5 -24 11 -20 38 3 17 10 65 17 106 6 41 14 79 16
83 3 5 29 -36 59 -89 30 -54 58 -102 63 -107 6 -6 55 17 129 62 226 135 327
169 503 170 98 1 118 -2 123 -15z m-4738 -1660 c130 -24 380 -79 471 -103 l41
-11 21 -88 c29 -115 84 -284 126 -385 19 -44 33 -82 31 -84 -3 -3 -224 -24
-681 -64 -66 -5 -132 -11 -146 -13 l-26 -2 -7 150 c-3 82 -6 256 -6 388 0 224
1 238 18 238 10 0 81 -12 158 -26z m2605 -391 c5 -5 6 -133 2 -320 l-6 -311
-61 -6 c-34 -4 -126 -11 -206 -16 -80 -6 -237 -17 -350 -25 -113 -8 -277 -19
-365 -25 -88 -6 -209 -15 -270 -21 -60 -5 -117 -9 -126 -9 -9 0 -33 -11 -53
-25 l-36 -24 0 107 c0 59 -7 145 -15 191 -8 45 -12 87 -9 92 3 5 24 9 47 9
103 1 170 39 165 93 -3 29 0 31 107 74 186 74 609 206 720 224 66 10 444 4
456 -8z m398 -48 c57 -8 104 -16 105 -17 1 -2 8 -39 15 -83 17 -101 42 -182
97 -312 24 -56 44 -107 44 -112 0 -6 -15 -12 -32 -15 -67 -11 -379 -29 -385
-22 -3 3 -9 137 -11 297 l-5 290 34 -5 c19 -3 81 -12 138 -21z m-6190 -1101
c514 -899 485 -832 326 -754 -179 87 -392 259 -500 402 -174 231 -252 481
-300 955 -14 135 -12 203 6 203 4 0 215 -363 468 -806z m7901 297 l0 -129 -76
-4 c-42 -2 -78 1 -81 6 -7 11 68 238 82 248 6 4 25 8 43 8 l32 0 0 -129z
m-3550 -24 c0 -3 -17 -16 -37 -28 -57 -35 -133 -109 -154 -151 -12 -23 -19
-58 -19 -90 0 -51 1 -54 60 -108 47 -44 65 -70 87 -125 23 -58 34 -73 64 -87
83 -41 210 -47 447 -22 218 23 225 20 307 -131 152 -278 315 -394 583 -412
l82 -6 0 -276 c0 -152 -3 -521 -7 -821 l-6 -545 -59 29 -58 29 -237 4 c-346 5
-328 2 -420 80 -131 111 -78 103 -741 114 -317 5 -717 12 -888 15 l-311 6 -6
770 -6 770 54 50 c69 63 114 131 195 293 103 208 156 248 540 410 74 31 190
83 257 117 101 49 132 70 175 117 l53 57 22 -27 c13 -15 23 -29 23 -32z m3538
-1205 l-12 -982 -97 -80 c-53 -44 -171 -158 -262 -253 -110 -115 -182 -182
-215 -200 l-51 -28 -311 8 c-171 5 -321 5 -334 2 -13 -4 -49 -27 -79 -52 -31
-25 -71 -49 -89 -52 -18 -3 -111 -5 -206 -3 l-173 3 -4 95 c-2 52 -7 442 -10
865 l-7 770 66 29 c157 68 291 186 402 356 58 88 76 108 114 126 25 12 194 71
375 132 182 61 391 136 465 167 74 31 153 61 175 67 47 12 247 26 257 18 4 -3
2 -448 -4 -988z"/>
</g>
</svg>
