<?xml version="1.0" standalone="no"?>
<!DOCTYPE svg PUBLIC "-//W3C//DTD SVG 20010904//EN"
 "http://www.w3.org/TR/2001/REC-SVG-20010904/DTD/svg10.dtd">
<svg version="1.0" xmlns="http://www.w3.org/2000/svg"
 width="1280.000000pt" height="784.000000pt" viewBox="0 0 1280.000000 784.000000"
 preserveAspectRatio="xMidYMid meet">
<metadata>
Created by potrace 1.15, written by Peter Selinger 2001-2017
</metadata>
<g transform="translate(0.000000,784.000000) scale(0.100000,-0.100000)"
fill="#000000" stroke="none">
<path d="M12250 7793 c-421 -203 -1294 -541 -2039 -788 l-205 -68 -95 17
c-254 43 -544 46 -771 8 -63 -11 -164 -23 -225 -27 -384 -23 -777 -139 -1085
-319 l-63 -37 -126 36 c-427 120 -814 144 -1221 74 -63 -11 -182 -24 -265 -29
-243 -16 -435 -48 -652 -110 -845 -240 -1562 -845 -1969 -1660 -185 -370 -286
-710 -346 -1160 -8 -59 -13 -211 -13 -403 0 -169 0 -307 -1 -307 -1 0 -282
-68 -625 -150 -343 -83 -867 -209 -1165 -280 l-540 -130 -100 14 c-304 44
-498 22 -626 -71 -84 -61 -133 -201 -114 -327 l7 -46 64 46 c92 65 161 87 256
82 93 -6 155 -33 251 -112 l67 -55 613 115 c337 63 923 173 1303 245 379 71
695 127 701 125 6 -2 15 -22 18 -43 14 -74 125 -389 185 -521 314 -698 851
-1265 1509 -1592 644 -321 1352 -401 2061 -234 210 50 507 161 688 259 45 25
126 63 180 85 236 98 486 247 696 412 131 104 380 354 486 488 45 58 88 112
95 121 9 11 38 18 102 22 185 13 427 67 633 143 86 32 170 70 568 260 465 221
881 637 1131 1131 223 441 322 883 308 1378 -6 241 -15 322 -57 528 -52 254
-147 522 -266 747 -98 185 -245 397 -362 523 -27 28 -41 51 -35 57 20 19 1049
354 1442 470 40 11 70 25 67 30 -3 5 6 25 20 46 37 55 56 127 62 239 19 361
-199 797 -405 811 -39 3 -63 -4 -142 -43z m-3041 -1073 c44 -1 61 -4 50 -10
-17 -10 -655 -197 -703 -206 -30 -5 -32 -3 -64 61 -17 36 -32 69 -32 74 0 9
101 34 230 56 119 20 316 35 394 29 32 -2 89 -4 125 -4z m-915 -242 l7 -46
-55 -16 c-73 -22 -76 -21 -158 20 l-71 37 39 20 c21 12 80 38 129 58 l90 38 6
-32 c4 -18 10 -53 13 -79z m-1892 -78 l51 0 -6 -32 c-3 -18 -22 -109 -41 -203
-19 -93 -38 -192 -41 -218 -5 -28 -14 -51 -24 -56 -9 -5 -99 -31 -201 -59
-233 -64 -631 -180 -955 -279 -185 -56 -257 -82 -277 -100 l-27 -26 -98 91
c-54 50 -117 105 -140 124 -23 18 -42 36 -42 40 -1 13 131 158 235 259 93 90
108 99 254 171 286 141 548 221 875 269 85 12 351 28 373 22 8 -1 36 -3 64 -3z
m414 -40 c167 -30 429 -102 474 -130 12 -8 6 -18 -30 -54 -45 -45 -47 -46
-280 -110 -129 -35 -242 -67 -250 -71 -14 -5 -18 16 -29 142 -6 81 -15 169
-18 196 -7 56 -15 54 133 27z m3935 -378 c177 -188 353 -446 450 -659 36 -79
119 -290 119 -302 0 -5 -24 -12 -52 -15 -93 -12 -359 -66 -503 -102 -335 -83
-708 -205 -1051 -342 l-52 -21 -36 102 c-19 56 -41 116 -47 133 -12 30 -9 37
48 130 148 241 300 532 409 783 35 80 70 148 78 153 8 4 124 49 258 98 133 50
252 95 263 100 38 17 53 10 116 -58z m-1141 -335 c0 -2 -51 -106 -113 -231
l-114 -228 -61 99 c-33 54 -76 121 -95 148 l-34 50 201 82 c196 79 216 87 216
80z m-5140 -254 c24 -38 74 -116 113 -176 l69 -107 -32 -98 c-25 -74 -34 -122
-39 -205 l-6 -109 -40 -14 c-90 -30 -148 -134 -125 -223 29 -116 131 -170 237
-126 49 20 51 20 67 -20 19 -46 175 -203 247 -248 l56 -35 27 -149 c16 -81 30
-159 33 -172 6 -23 5 -24 -44 -17 -291 38 -654 59 -947 54 l-236 -3 0 46 c0
75 29 281 61 443 78 384 234 776 444 1114 38 61 71 112 71 112 1 0 21 -30 44
-67z m4204 -393 c35 -102 80 -228 101 -280 l36 -94 -23 -18 c-61 -46 -69 -45
-164 24 -49 36 -137 97 -196 136 l-107 72 102 123 c56 67 119 146 141 175 21
29 40 51 42 50 2 -2 32 -87 68 -188z m-1053 -186 c17 -8 29 -19 27 -23 -2 -5
-47 -47 -100 -95 l-96 -85 -7 75 c-4 41 -4 78 -1 82 8 7 127 60 139 61 4 1 22
-6 38 -15z m3768 -46 c31 -147 42 -239 53 -412 22 -354 -21 -677 -134 -1011
-35 -101 -92 -240 -100 -240 -3 0 -63 43 -134 96 -316 235 -688 461 -1101 667
l-181 91 -12 73 c-7 40 -18 101 -25 136 -10 47 -10 64 -1 67 6 2 71 18 144 34
484 110 880 249 1267 447 110 56 203 102 207 103 4 0 11 -23 17 -51z m-3249
-235 c23 -12 19 -13 -44 -13 l-69 0 23 25 c19 20 26 22 44 13 11 -6 32 -17 46
-25z m477 -827 c-9 -13 -60 -95 -113 -182 -53 -88 -97 -160 -98 -161 -1 -1
-35 3 -76 8 -130 16 -383 39 -434 39 -27 0 -46 3 -43 6 5 5 755 308 776 313 2
1 -4 -10 -12 -23z m386 -46 l52 0 39 -202 c21 -112 41 -209 44 -217 4 -11 -1
-13 -19 -8 -13 4 -96 21 -184 39 -88 17 -161 32 -163 33 -1 1 24 62 56 136 33
74 67 156 77 182 13 33 22 46 32 42 8 -3 38 -5 66 -5z m919 -178 c334 -210
740 -406 1065 -513 70 -24 130 -44 132 -45 6 -5 -69 -124 -142 -228 -181 -257
-393 -463 -647 -631 -153 -101 -437 -245 -484 -245 -6 0 -21 64 -34 152 -25
168 -63 361 -93 482 l-20 79 25 106 c60 251 96 538 96 770 0 72 2 131 4 131 3
0 47 -26 98 -58z m-5877 -146 c88 -13 185 -28 215 -32 l55 -7 -45 -12 c-79
-23 -389 -95 -405 -95 -11 0 -15 12 -15 53 0 28 -3 70 -7 91 -6 37 -5 39 18
33 13 -3 96 -17 184 -31z m3381 -335 c122 -23 555 -70 654 -72 93 -1 95 -4 59
-79 -45 -95 -151 -351 -189 -457 -18 -51 -36 -93 -39 -93 -13 0 -231 228 -300
313 -74 92 -175 241 -231 340 -35 63 -35 63 46 48z m1784 -75 c0 -112 -86
-472 -165 -691 -55 -153 -193 -445 -210 -445 -18 0 -147 43 -237 79 -136 54
-358 173 -451 243 -17 13 -13 22 61 138 85 133 261 439 333 580 l44 85 158 8
c87 4 213 14 280 21 195 21 187 22 187 -18z m-3720 -44 c-19 -15 -98 -76 -176
-137 -352 -273 -749 -644 -975 -913 l-37 -43 -25 43 c-47 81 -135 263 -180
373 -49 121 -125 346 -129 384 -3 24 -2 24 442 108 245 46 594 113 775 147
182 35 332 64 335 64 3 1 -11 -11 -30 -26z m527 -149 c68 -33 74 -39 70 -62
-74 -423 -127 -854 -148 -1206 -13 -219 -7 -734 11 -919 6 -60 8 -111 6 -114
-7 -6 -215 73 -323 123 -405 189 -798 504 -1085 872 l-47 60 87 64 c327 242
633 511 1032 906 173 172 317 313 319 313 2 0 37 -17 78 -37z m581 -31 c35
-63 307 -457 404 -586 346 -459 713 -849 1087 -1157 l44 -36 -84 -65 c-315
-245 -677 -421 -1072 -519 -148 -37 -279 -46 -438 -30 -132 13 -301 40 -311
49 -3 4 6 70 22 147 112 554 180 1314 180 2020 l0 173 53 12 c28 7 59 16 67
21 23 13 25 12 48 -29z m3060 -947 c-16 -10 -209 -45 -252 -45 l-55 0 41 73
c23 39 61 113 86 164 l44 91 69 -140 c39 -77 68 -141 67 -143z m-1771 0 c33
-23 235 -112 340 -150 101 -37 360 -105 399 -105 13 0 24 -4 24 -9 0 -23 -216
-285 -308 -375 l-40 -38 -43 73 c-48 83 -280 436 -358 547 -52 71 -55 86 -14
57z"/>
</g>
</svg>
