<svg version="1.1" id="Layer_1" xmlns="http://www.w3.org/2000/svg" xmlns:xlink="http://www.w3.org/1999/xlink" x="0px" y="0px"
	 width="100%" viewBox="0 0 212 212" enable-background="new 0 0 212 212" xml:space="preserve">
<path fill="#FFFFFF" opacity="1.000000" stroke="none" 
	d="
M122.000000,213.000000 
	C81.333336,213.000000 41.166672,213.000000 1.000005,213.000000 
	C1.000004,142.333344 1.000004,71.666679 1.000002,1.000015 
	C71.666656,1.000010 142.333313,1.000010 212.999969,1.000005 
	C212.999985,71.666649 212.999985,142.333298 213.000000,212.999969 
	C182.833328,213.000000 152.666672,213.000000 122.000000,213.000000 
M76.517174,135.147415 
	C76.207108,136.302826 75.897041,137.458221 75.640747,139.597076 
	C75.729523,158.170349 75.818298,176.743622 76.150414,195.746262 
	C76.150414,195.746262 76.592041,195.970139 76.592041,195.970139 
	C76.592041,195.970139 77.086784,195.948227 78.011192,196.013657 
	C95.400948,196.014496 112.790894,196.049301 130.180054,195.948364 
	C131.498047,195.940720 132.810471,194.969070 134.117676,194.345596 
	C134.117676,194.345596 134.213837,194.373886 135.150085,194.906036 
	C135.571289,194.099045 136.356644,193.293655 136.360153,192.484863 
	C136.436829,174.818817 136.510178,157.151215 136.261978,139.488449 
	C136.243668,138.186264 133.798050,135.813858 132.463303,135.801270 
	C114.306885,135.629776 96.147362,135.787415 77.545021,135.542877 
	C77.363579,135.523010 77.182137,135.503143 76.517174,135.147415 
M75.857819,74.666595 
	C76.240982,74.747208 76.624146,74.827812 77.929710,75.082977 
	C96.621780,75.028084 115.313850,74.973198 134.485123,75.157326 
	C134.656998,75.109116 134.828873,75.060898 135.589981,75.048920 
	C135.717316,74.699127 135.844650,74.349335 136.376556,73.137138 
	C136.394348,68.828728 136.456131,64.519966 136.421814,60.211971 
	C136.312378,46.474960 136.167236,32.738232 136.340057,18.159433 
	C134.865555,17.105612 133.401886,15.153027 131.914886,15.135072 
	C114.372902,14.923251 96.827148,15.052325 79.283142,14.954941 
	C76.127892,14.937426 74.885887,15.852966 75.727592,19.893694 
	C75.784950,37.935673 75.842308,55.977650 75.857819,74.666595 
z"/>
<path fill="#122E85" opacity="1.000000" stroke="none" 
	d="
M77.988602,135.863861 
	C96.147362,135.787415 114.306885,135.629776 132.463303,135.801270 
	C133.798050,135.813858 136.243668,138.186264 136.261978,139.488449 
	C136.510178,157.151215 136.436829,174.818817 136.360153,192.484863 
	C136.356644,193.293655 135.571289,194.099045 134.613434,194.143890 
	C134.050598,176.396759 134.003876,159.411758 134.020370,142.426819 
	C134.022842,139.885101 134.010925,137.918839 130.469803,137.946274 
	C114.151375,138.072662 97.831299,138.034424 81.512161,137.968689 
	C78.968430,137.958450 77.958420,138.833817 77.970016,141.446686 
	C78.041641,157.599243 78.035324,173.752380 77.978294,189.905060 
	C77.967636,192.922562 79.304970,194.079330 82.223106,194.018127 
	C86.717262,193.923874 91.215279,193.958496 95.710999,194.003952 
	C108.515999,194.133423 121.320671,194.295975 134.125473,194.445526 
	C132.810471,194.969070 131.498047,195.940720 130.180054,195.948364 
	C112.790894,196.049301 95.400948,196.014496 77.481758,195.690506 
	C76.603905,195.350540 76.255493,195.333710 75.907074,195.316895 
	C75.818298,176.743622 75.729523,158.170349 75.900848,139.028687 
	C76.489929,137.976608 76.818901,137.492950 77.351654,136.869446 
	C77.819771,136.501068 77.964157,136.212479 77.988602,135.863861 
z"/>
<path fill="#E2171E" opacity="1.000000" stroke="none" 
	d="
M134.005920,74.918304 
	C115.313850,74.973198 96.621780,75.028084 77.473816,74.765373 
	C77.017914,74.447769 77.026978,73.986908 77.269882,73.818222 
	C77.681976,73.095840 77.851158,72.542152 78.486893,71.992577 
	C97.295952,71.994141 115.638451,71.991585 133.985229,72.355179 
	C133.994980,73.453659 134.000458,74.185982 134.005920,74.918304 
z"/>
<path fill="#E0040C" opacity="1.000000" stroke="none" 
	d="
M76.034561,18.998833 
	C74.885887,15.852966 76.127892,14.937426 79.283142,14.954941 
	C96.827148,15.052325 114.372902,14.923251 131.914886,15.135072 
	C133.401886,15.153027 134.865555,17.105612 135.854340,18.574162 
	C134.923721,18.988565 134.478806,18.988239 133.931870,18.593906 
	C132.824921,17.803646 131.821503,17.066420 130.814865,17.062021 
	C114.333961,16.990036 97.852341,16.971481 81.372055,17.095392 
	C80.233429,17.103952 79.103966,18.329556 77.647614,18.989021 
	C76.894844,18.992186 76.464699,18.995510 76.034561,18.998833 
z"/>
<path fill="#E10B13" opacity="1.000000" stroke="none" 
	d="
M134.033905,18.987913 
	C134.478806,18.988239 134.923721,18.988565 135.702271,18.995144 
	C136.167236,32.738232 136.312378,46.474960 136.421814,60.211971 
	C136.456131,64.519966 136.394348,68.828728 135.957367,73.677795 
	C135.272491,74.424644 135.093353,74.689384 135.000748,75.012680 
	C134.828873,75.060898 134.656998,75.109116 134.245514,75.037811 
	C134.000458,74.185982 133.994980,73.453659 133.991913,71.887794 
	C134.007523,53.698807 134.020706,36.343361 134.033905,18.987913 
z"/>
<path fill="#E10B13" opacity="1.000000" stroke="none" 
	d="
M75.881073,19.446264 
	C76.464699,18.995510 76.894844,18.992186 77.658813,19.458801 
	C78.001869,37.281982 78.011108,54.635223 78.020340,71.988464 
	C77.851158,72.542152 77.681976,73.095840 76.987595,73.819908 
	C76.274818,74.000069 76.087242,74.009850 75.899658,74.019630 
	C75.842308,55.977650 75.784950,37.935673 75.881073,19.446264 
z"/>
<path fill="#97A4C8" opacity="1.000000" stroke="none" 
	d="
M77.147873,137.009277 
	C76.818901,137.492950 76.489929,137.976608 75.873962,138.536957 
	C75.897041,137.458221 76.207108,136.302826 76.799057,135.696808 
	C77.103249,136.500549 77.125557,136.754913 77.147873,137.009277 
z"/>
<path fill="#E4222B" opacity="1.000000" stroke="none" 
	d="
M75.878738,74.343109 
	C76.087242,74.009850 76.274818,74.000069 76.744690,73.988594 
	C77.026978,73.986908 77.017914,74.447769 77.012611,74.678101 
	C76.624146,74.827812 76.240982,74.747208 75.878738,74.343109 
z"/>
<path fill="#E4222B" opacity="1.000000" stroke="none" 
	d="
M135.295364,75.030800 
	C135.093353,74.689384 135.272491,74.424644 135.755066,74.109001 
	C135.844650,74.349335 135.717316,74.699127 135.295364,75.030800 
z"/>
<path fill="#2C4592" opacity="1.000000" stroke="none" 
	d="
M77.351654,136.869446 
	C77.125557,136.754913 77.103249,136.500549 77.040810,135.864731 
	C77.182137,135.503143 77.363579,135.523010 77.766815,135.703369 
	C77.964157,136.212479 77.819771,136.501068 77.351654,136.869446 
z"/>
<path fill="#C2CAE1" opacity="1.000000" stroke="none" 
	d="
M76.028748,195.531570 
	C76.255493,195.333710 76.603905,195.350540 77.019554,195.657791 
	C77.086784,195.948227 76.592041,195.970139 76.592041,195.970139 
	C76.592041,195.970139 76.150414,195.746262 76.028748,195.531570 
z"/>
<path fill="#243E8E" opacity="1.000000" stroke="none" 
	d="
M134.121582,194.395569 
	C121.320671,194.295975 108.515999,194.133423 95.710999,194.003952 
	C91.215279,193.958496 86.717262,193.923874 82.223106,194.018127 
	C79.304970,194.079330 77.967636,192.922562 77.978294,189.905060 
	C78.035324,173.752380 78.041641,157.599243 77.970016,141.446686 
	C77.958420,138.833817 78.968430,137.958450 81.512161,137.968689 
	C97.831299,138.034424 114.151375,138.072662 130.469803,137.946274 
	C134.010925,137.918839 134.022842,139.885101 134.020370,142.426819 
	C134.003876,159.411758 134.050598,176.396759 134.145309,193.877808 
	C134.213837,194.373886 134.117676,194.345596 134.121582,194.395569 
z"/>
<path fill="#E31E25" opacity="1.000000" stroke="none" 
	d="
M78.486908,71.992577 
	C78.011108,54.635223 78.001869,37.281982 77.981438,19.458961 
	C79.103966,18.329556 80.233429,17.103952 81.372055,17.095392 
	C97.852341,16.971481 114.333961,16.990036 130.814865,17.062021 
	C131.821503,17.066420 132.824921,17.803646 133.931854,18.593906 
	C134.020706,36.343361 134.007523,53.698807 133.987640,71.521637 
	C115.638451,71.991585 97.295952,71.994141 78.486908,71.992577 
z"/>
</svg>